<?xml version="1.0" encoding="UTF-8" standalone="no"?>
<!DOCTYPE svg PUBLIC "-//W3C//DTD SVG 1.1//EN"
 "http://www.w3.org/Graphics/SVG/1.1/DTD/svg11.dtd">
<!-- Generated by graphviz version 2.42.4 (0)
 -->
<!-- Title: AereoConfigs Pages: 1 -->
<svg width="339pt" height="152pt"
 viewBox="0.00 0.00 339.00 152.00" xmlns="http://www.w3.org/2000/svg" xmlns:xlink="http://www.w3.org/1999/xlink">
<g id="graph0" class="graph" transform="scale(1 1) rotate(0) translate(4 148)">
<title>AereoConfigs</title>
<polygon fill="white" stroke="transparent" points="-4,4 -4,-148 335,-148 335,4 -4,4"/>
<!-- grid -->
<g id="node1" class="node">
<title>grid</title>
<path fill="#e6f7e6" stroke="black" d="M149,-144C149,-144 12,-144 12,-144 6,-144 0,-138 0,-132 0,-132 0,-120 0,-120 0,-114 6,-108 12,-108 12,-108 149,-108 149,-108 155,-108 161,-114 161,-120 161,-120 161,-132 161,-132 161,-138 155,-144 149,-144"/>
<text text-anchor="middle" x="80.5" y="-129.4" font-family="Helvetica,sans-Serif" font-size="12.00">grid_dist</text>
<text text-anchor="middle" x="80.5" y="-116.4" font-family="Helvetica,sans-Serif" font-size="12.00">MajorTOM grid over AOI</text>
</g>
<!-- job -->
<g id="node4" class="node">
<title>job</title>
<path fill="#fff4e6" stroke="black" d="M319,-90C319,-90 209,-90 209,-90 203,-90 197,-84 197,-78 197,-78 197,-66 197,-66 197,-60 203,-54 209,-54 209,-54 319,-54 319,-54 325,-54 331,-60 331,-66 331,-66 331,-78 331,-78 331,-84 325,-90 319,-90"/>
<text text-anchor="middle" x="264" y="-75.4" font-family="Helvetica,sans-Serif" font-size="12.00">ExtractionJob</text>
<text text-anchor="middle" x="264" y="-62.4" font-family="Helvetica,sans-Serif" font-size="12.00">Validated job config</text>
</g>
<!-- grid&#45;&gt;job -->
<g id="edge1" class="edge">
<title>grid&#45;&gt;job</title>
<path fill="none" stroke="black" d="M142.19,-107.94C158.38,-103.13 176.02,-97.88 192.69,-92.92"/>
<polygon fill="black" stroke="black" points="193.78,-96.25 202.37,-90.04 191.79,-89.54 193.78,-96.25"/>
</g>
<!-- patch -->
<g id="node2" class="node">
<title>patch</title>
<path fill="#e6f7e6" stroke="black" d="M144,-90C144,-90 17,-90 17,-90 11,-90 5,-84 5,-78 5,-78 5,-66 5,-66 5,-60 11,-54 17,-54 17,-54 144,-54 144,-54 150,-54 156,-60 156,-66 156,-66 156,-78 156,-78 156,-84 150,-90 144,-90"/>
<text text-anchor="middle" x="80.5" y="-75.4" font-family="Helvetica,sans-Serif" font-size="12.00">PatchConfig</text>
<text text-anchor="middle" x="80.5" y="-62.4" font-family="Helvetica,sans-Serif" font-size="12.00">Patch size &amp; resolution</text>
</g>
<!-- patch&#45;&gt;job -->
<g id="edge2" class="edge">
<title>patch&#45;&gt;job</title>
<path fill="none" stroke="black" d="M156.11,-72C166.23,-72 176.62,-72 186.77,-72"/>
<polygon fill="black" stroke="black" points="186.82,-75.5 196.82,-72 186.82,-68.5 186.82,-75.5"/>
</g>
<!-- extract -->
<g id="node3" class="node">
<title>extract</title>
<path fill="#e6f7e6" stroke="black" d="M121,-36C121,-36 40,-36 40,-36 34,-36 28,-30 28,-24 28,-24 28,-12 28,-12 28,-6 34,0 40,0 40,0 121,0 121,0 127,0 133,-6 133,-12 133,-12 133,-24 133,-24 133,-30 127,-36 121,-36"/>
<text text-anchor="middle" x="80.5" y="-21.4" font-family="Helvetica,sans-Serif" font-size="12.00">read/write</text>
<text text-anchor="middle" x="80.5" y="-8.4" font-family="Helvetica,sans-Serif" font-size="12.00">Pipeline stages</text>
</g>
<!-- extract&#45;&gt;job -->
<g id="edge3" class="edge">
<title>extract&#45;&gt;job</title>
<path fill="none" stroke="black" d="M133.03,-33.33C151.58,-38.85 172.84,-45.18 192.72,-51.09"/>
<polygon fill="black" stroke="black" points="191.77,-54.46 202.35,-53.96 193.76,-47.75 191.77,-54.46"/>
</g>
</g>
</svg>
